<svg class="kg-logo__square" width="48" height="48" viewBox="0 0 48 48" fill="none"
  xmlns="http://www.w3.org/2000/svg">
  <path d="M16.7348 0H31.2652C36.084 0 38.4928 0 41.0868 0.82C43.9188 1.8508 46.1492 4.0812 47.18 6.9132C48 9.5068 48 11.9164 48 16.7348V31.2652C48 36.084 48 38.4928 47.18 41.0868C46.1492 43.9188 43.9188 46.1492 41.0868 47.1796C38.4928 48 36.084 48 31.2652 48H16.7348C11.916 48 9.5068 48 6.9132 47.1796C4.0812 46.1492 1.8508 43.9188 0.82 41.0868C0 38.4928 0 36.084 0 31.2652V16.7348C0 11.9164 0 9.5068 0.82 6.9132C1.8508 4.0812 4.0812 1.8508 6.9132 0.82C9.5068 0 11.916 0 16.7348 0Z"></path>
  <path fill-rule="evenodd" clip-rule="evenodd" d="M21.3401 29.3106L31.2392 20.9309H23.4857L15.8256 28.2324V20.3799C15.8256 15.7592 19.5518 12.0001 24.1318 12.0001C28.7119 12.0001 32.4382 15.7592 32.4382 20.3799L32.4526 32.6553H25.291L21.3401 29.3106ZM10.8419 20.3799V37.1318C10.8419 37.4403 11.0898 37.6905 11.3955 37.6905H15.2719C15.5778 37.6905 15.8256 37.4403 15.8256 37.1318V30.389L23.4857 37.6905H31.2392L31.2305 37.6831H33.0115H34.8021H36.8879C37.1936 37.6831 37.4417 37.433 37.4417 37.1244L37.4219 20.3799C37.4219 12.9751 31.4717 6.97222 24.1318 6.97222C16.792 6.97222 10.8419 12.9751 10.8419 20.3799Z" fill="white"></path>
</svg>